{"title":"Deep.Blue.Sea.1999.720p.BDRip.x264.Iou1","uid":11463114,"size":838073255,"categoryP":"video","categoryS":"hd___movies","magnet":"?xt=urn:btih:2440fec231ef8ef2a810e77438e55292f26bc4b0&amp;dn=Deep.Blue.Sea.1999.720p.BDRip.x264.Iou1&amp;tr=udp%3A%2F%2Ftracker.openbittorrent.com%3A80&amp;tr=udp%3A%2F%2Fopen.demonii.com%3A1337&amp;tr=udp%3A%2F%2Ftracker.coppersurfer.tk%3A6969&amp;tr=udp%3A%2F%2Fexodus.desync.com%3A6969","seeders":0,"leechers":1,"uploader":"jaybee211","files":-1,"time":1416011615,"description":"Genre                                    : Action/Sci-Fi/Thriller\nFormat                                   : MPEG-4\nFormat profile                           : Base Media / Version 2\nCodec ID                                 : mp42\nFile size                                : 799 MiB\nDuration                                 : 1h 40mn\nOverall bit rate mode                    : Variable\nOverall bit rate                         : 1 110 Kbps\n\nVideo\nID                                       : 1\nFormat                                   : AVC\nFormat/Info                              : Advanced Video Codec\nFormat profile                           : &lt;a class=&quot;__cf_email__&quot; href=&quot;/cdn-cgi/l/email-protection&quot; data-cfemail=&quot;f4bc9d939cb4b8c7dac5&quot;&gt;[email&amp;#160;protected]&lt;/a&gt;&lt;script cf-hash='f9e31' type=&quot;text/javascript&quot;&gt;\n/* &lt;![CDATA[ */!function(){try{var t=&quot;currentScript&quot;in document?document.currentScript:function(){for(var t=document.getElementsByTagName(&quot;script&quot;),e=t.length;e--;)if(t[e].getAttribute(&quot;cf-hash&quot;))return t[e]}();if(t&amp;&amp;t.previousSibling){var e,r,n,i,c=t.previousSibling,a=c.getAttribute(&quot;data-cfemail&quot;);if(a){for(e=&quot;&quot;,r=parseInt(a.substr(0,2),16),n=2;a.length-n;n+=2)i=parseInt(a.substr(n,2),16)^r,e+=String.fromCharCode(i);e=document.createTextNode(e),c.parentNode.replaceChild(e,c)}}}catch(u){}}();/* ]]&gt; */&lt;/script&gt;\nFormat settings, CABAC                   : Yes\nFormat settings, ReFrames                : 5 frames\nCodec ID                                 : avc1\nCodec ID/Info                            : Advanced Video Coding\nDuration                                 : 1h 40mn\nBit rate                                 : 1 010 Kbps\nWidth                                    : 1 280 pixels\nHeight                                   : 528 pixels\nDisplay aspect ratio                     : 2.40:1\nFrame rate mode                          : Constant\nFrame rate                               : 25.000 fps\nColor space                              : YUV\nChroma subsampling                       : 4:2:0\nBit depth                                : 8 bits\nScan type                                : Progressive\nBits/(Pixel*Frame)                       : 0.060\nStream size                              : 727 MiB (91%)\n\nAudio\nID                                       : 2\nFormat                                   : AAC\nFormat/Info                              : Advanced Audio Codec\nFormat profile                           : LC\nCodec ID                                 : 40\nDuration                                 : 1h 40mn\nBit rate mode                            : Variable\nBit rate                                 : 96.0 Kbps\nMaximum bit rate                         : 159 Kbps\nChannel(s)                               : 2 channels\nChannel positions                        : Front: L R\nSampling rate                            : 48.0 KHz\nCompression mode                         : Lossy\nStream size                              : 69.1 MiB (9%)\nLanguage                                 : English\nSubtitles                                : None\n\nScreens. &lt;a href=&quot; http://bayimg.com/jAeDCAagL&quot; rel=&quot;nofollow&quot; target=&quot;_NEW&quot;&gt; http://bayimg.com/jAeDCAagL&lt;/a&gt;\n\nIMDB. &lt;a href=&quot; http://www.imdb.com/title/tt0149261/&quot; rel=&quot;nofollow&quot; target=&quot;_NEW&quot;&gt; http://www.imdb.com/title/tt0149261/&lt;/a&gt;\n\nStoryline.\nSearching for a cure to Alzheimer's disease a group of scientists on an isolated research facility become the bait as a trio of intelligent sharks fight back.\n\nEnjoy","torrent":{"xt":"urn:btih:2440fec231ef8ef2a810e77438e55292f26bc4b0","amp;dn":"Deep.Blue.Sea.1999.720p.BDRip.x264.Iou1","amp;tr":["udp%3A%2F%2Ftracker.openbittorrent.com%3A80","udp%3A%2F%2Fopen.demonii.com%3A1337","udp%3A%2F%2Ftracker.coppersurfer.tk%3A6969","udp%3A%2F%2Fexodus.desync.com%3A6969"],"infoHash":"2440fec231ef8ef2a810e77438e55292f26bc4b0","infoHashBuffer":{"type":"Buffer","data":[36,64,254,194,49,239,142,242,168,16,231,116,56,229,82,146,242,107,196,176]},"announce":[],"urlList":[]}}